HIERARCHY
ROOT Hips
{
  OFFSET 5.84602e-005 68.8428 3.50346
  CHANNELS 6 Xposition Yposition Zposition Zrotation Xrotation Yrotation
  JOINT Spine
  {
    OFFSET 0 8.597 -4.6522
    CHANNELS 3 Zrotation Xrotation Yrotation
    JOINT Spine1
    {
      OFFSET 0 7.8454 0.4098
      CHANNELS 3 Zrotation Xrotation Yrotation
      JOINT Spine2
      {
        OFFSET 0 9.7078 -2.1609
        CHANNELS 3 Zrotation Xrotation Yrotation
        JOINT Neck
        {
          OFFSET 0 21.8761 -0.4549
          CHANNELS 3 Zrotation Xrotation Yrotation
          JOINT Head
          {
            OFFSET 0 12.3537 3.3602
            CHANNELS 3 Zrotation Xrotation Yrotation
            End Site
            {
              OFFSET 0.0001 18.9506 0.5657
            }
          }
        }
        JOINT LeftShoulder
        {
          OFFSET 2.2086 21.1115 7.2329
          CHANNELS 3 Zrotation Xrotation Yrotation
          JOINT LeftArm
          {
            OFFSET 13.1193 3.0282 -4.8998
            CHANNELS 3 Zrotation Xrotation Yrotation
            JOINT LeftForeArm
            {
              OFFSET 27.4081 -0.0973053 -0.2375
              CHANNELS 3 Zrotation Xrotation Yrotation
              JOINT LeftHand
              {
                OFFSET 22.8641 0.0662994 -0.1369
                CHANNELS 3 Zrotation Xrotation Yrotation
                JOINT LeftHandIndex1
                {
                  OFFSET 8.8614 0.775009 2.4612
                  CHANNELS 3 Zrotation Xrotation Yrotation
                  JOINT LeftHandIndex2
                  {
                    OFFSET 3.3146 -0.808304 0.5841
                    CHANNELS 3 Zrotation Xrotation Yrotation
                    JOINT LeftHandIndex3
                    {
                      OFFSET 2.2628 -0.552002 0.3989
                      CHANNELS 3 Zrotation Xrotation Yrotation
                      End Site
                      {
                        OFFSET 1.6102 -0.4807 0.2612
                      }
                    }
                  }
                }
                JOINT LeftHandMiddle1
                {
                  OFFSET 8.9937 0.895004 0.2143
                  CHANNELS 3 Zrotation Xrotation Yrotation
                  JOINT LeftHandMiddle2
                  {
                    OFFSET 4.0984 0.0113983 -0.0242
                    CHANNELS 3 Zrotation Xrotation Yrotation
                    JOINT LeftHandMiddle3
                    {
                      OFFSET 2.2716 0.00689697 -0.0138001
                      CHANNELS 3 Zrotation Xrotation Yrotation
                      End Site
                      {
                        OFFSET 2.0404 -0.1441 0.0027
                      }
                    }
                  }
                }
                JOINT LeftHandRing1
                {
                  OFFSET 8.5234 0.597198 -2.0164
                  CHANNELS 3 Zrotation Xrotation Yrotation
                  JOINT LeftHandRing2
                  {
                    OFFSET 3.7188 -0.188293 -0.2328
                    CHANNELS 3 Zrotation Xrotation Yrotation
                    JOINT LeftHandRing3
                    {
                      OFFSET 2.1191 -0.106598 -0.1332
                      CHANNELS 3 Zrotation Xrotation Yrotation
                      End Site
                      {
                        OFFSET 1.8737 -0.2304 -0.0886
                      }
                    }
                  }
                }
                JOINT LeftHandPinky1
                {
                  OFFSET 7.9094 -0.601089 -3.4825
                  CHANNELS 3 Zrotation Xrotation Yrotation
                  JOINT LeftHandPinky2
                  {
                    OFFSET 2.2874 -0.477005 -0.6314
                    CHANNELS 3 Zrotation Xrotation Yrotation
                    JOINT LeftHandPinky3
                    {
                      OFFSET 1.6774 -0.349396 -0.4633
                      CHANNELS 3 Zrotation Xrotation Yrotation
                      End Site
                      {
                        OFFSET 1.4888 -0.4091 -0.3416
                      }
                    }
                  }
                }
                JOINT LeftHandThumb1
                {
                  OFFSET 1.833 -1.3875 1.3896
                  CHANNELS 3 Zrotation Xrotation Yrotation
                  JOINT LeftHandThumb2
                  {
                    OFFSET 3.4129 -1.121 2.5732
                    CHANNELS 3 Zrotation Xrotation Yrotation
                    JOINT LeftHandThumb3
                    {
                      OFFSET 2.2474 -0.804199 1.6192
                      CHANNELS 3 Zrotation Xrotation Yrotation
                      End Site
                      {
                        OFFSET 1.6527 -0.5689 1.1317
                      }
                    }
                  }
                }
              }
            }
          }
        }
        JOINT RightShoulder
        {
          OFFSET -2.2086 21.1115 7.2329
          CHANNELS 3 Zrotation Xrotation Yrotation
          JOINT RightArm
          {
            OFFSET -13.1216 3.0287 -4.9007
            CHANNELS 3 Zrotation Xrotation Yrotation
            JOINT RightForeArm
            {
              OFFSET -27.4081 -0.0973053 -0.2375
              CHANNELS 3 Zrotation Xrotation Yrotation
              JOINT RightHand
              {
                OFFSET -22.8641 0.0664063 -0.1369
                CHANNELS 3 Zrotation Xrotation Yrotation
                JOINT RightHandIndex1
                {
                  OFFSET -8.8614 0.774994 2.4612
                  CHANNELS 3 Zrotation Xrotation Yrotation
                  JOINT RightHandIndex2
                  {
                    OFFSET -3.3146 -0.808304 0.5841
                    CHANNELS 3 Zrotation Xrotation Yrotation
                    JOINT RightHandIndex3
                    {
                      OFFSET -2.2628 -0.552002 0.3989
                      CHANNELS 3 Zrotation Xrotation Yrotation
                      End Site
                      {
                        OFFSET -1.6102 -0.4807 0.2612
                      }
                    }
                  }
                }
                JOINT RightHandMiddle1
                {
                  OFFSET -8.9937 0.894989 0.2143
                  CHANNELS 3 Zrotation Xrotation Yrotation
                  JOINT RightHandMiddle2
                  {
                    OFFSET -4.0984 0.0113983 -0.0242
                    CHANNELS 3 Zrotation Xrotation Yrotation
                    JOINT RightHandMiddle3
                    {
                      OFFSET -2.2716 0.00691223 -0.0138001
                      CHANNELS 3 Zrotation Xrotation Yrotation
                      End Site
                      {
                        OFFSET -2.0404 -0.1441 0.0027
                      }
                    }
                  }
                }
                JOINT RightHandRing1
                {
                  OFFSET -8.5234 0.597198 -2.0164
                  CHANNELS 3 Zrotation Xrotation Yrotation
                  JOINT RightHandRing2
                  {
                    OFFSET -3.7188 -0.188309 -0.2328
                    CHANNELS 3 Zrotation Xrotation Yrotation
                    JOINT RightHandRing3
                    {
                      OFFSET -2.1191 -0.106598 -0.1332
                      CHANNELS 3 Zrotation Xrotation Yrotation
                      End Site
                      {
                        OFFSET -1.8737 -0.2304 -0.0886
                      }
                    }
                  }
                }
                JOINT RightHandPinky1
                {
                  OFFSET -7.9094 -0.601105 -3.4825
                  CHANNELS 3 Zrotation Xrotation Yrotation
                  JOINT RightHandPinky2
                  {
                    OFFSET -2.2874 -0.477005 -0.6314
                    CHANNELS 3 Zrotation Xrotation Yrotation
                    JOINT RightHandPinky3
                    {
                      OFFSET -1.6774 -0.349396 -0.4633
                      CHANNELS 3 Zrotation Xrotation Yrotation
                      End Site
                      {
                        OFFSET -1.4888 -0.4091 -0.3416
                      }
                    }
                  }
                }
                JOINT RightHandThumb1
                {
                  OFFSET -1.833 -1.38751 1.3896
                  CHANNELS 3 Zrotation Xrotation Yrotation
                  JOINT RightHandThumb2
                  {
                    OFFSET -3.41299 -1.12099 2.5732
                    CHANNELS 3 Zrotation Xrotation Yrotation
                    JOINT RightHandThumb3
                    {
                      OFFSET -2.24741 -0.804108 1.6192
                      CHANNELS 3 Zrotation Xrotation Yrotation
                      End Site
                      {
                        OFFSET -1.6527 -0.5689 1.1317
                      }
                    }
                  }
                }
              }
            }
          }
        }
      }
    }
  }
  JOINT RightUpLeg
  {
    OFFSET -9.1966 3.8861 -0.7581
    CHANNELS 3 Zrotation Xrotation Yrotation
    JOINT RightLeg
    {
      OFFSET -0.7359 -41.0265 0
      CHANNELS 3 Zrotation Xrotation Yrotation
      JOINT RightFoot
      {
        OFFSET 0 -40.2855 0
        CHANNELS 3 Zrotation Xrotation Yrotation
        JOINT RightToeBase
        {
          OFFSET 0 -5.6122 11.7359
          CHANNELS 3 Zrotation Xrotation Yrotation
          End Site
          {
            OFFSET 0 0 7.8731
          }
        }
      }
    }
  }
  JOINT LeftUpLeg
  {
    OFFSET 9.1965 3.8864 -0.7581
    CHANNELS 3 Zrotation Xrotation Yrotation
    JOINT LeftLeg
    {
      OFFSET 0.7359 -41.0268 0
      CHANNELS 3 Zrotation Xrotation Yrotation
      JOINT LeftFoot
      {
        OFFSET 0 -40.2855 0
        CHANNELS 3 Zrotation Xrotation Yrotation
        JOINT LeftToeBase
        {
          OFFSET 0 -5.6122 11.7359
          CHANNELS 3 Zrotation Xrotation Yrotation
          End Site
          {
            OFFSET 0 0 7.8731
          }
        }
      }
    }
  }
}
MOTION
Frames:	6
Frame Time:	0.0333333
5.84602e-005 -17.6637 3.50346 0 0 -0 0 0 -0 0 0 -0 0 0 -0 0 0 -0 0 0 -0 0 0 -0 0 0 -0 0 0 -0 0 0 -0 0 0 -0 0 0 -0 0 0 -0 0 0 -0 -0.0146107 -8.87603e-005 -2.63497e-007 2.99804e-018 -2.42657e-020 -1.42182e-022 0 0 -0 -0.0187562 -0.001176 5.858e-005 5.06224e-018 3.88251e-019 1.21329e-020 0 0 -0 -0.012269 -0.00324817 0.000675346 -1.74678e-018 3.88251e-019 -0 0 0 -0 0 0 -0 0 0 -0 0 0 -0 0 0 -0 0 0 -0 0 0 -0 0 0 -0 0 0 -0 0 0 -0 0 0 -0 0.0149955 -9.10982e-005 2.64101e-007 -9.69331e-018 1.21329e-020 -4.7394e-023 0 0 -0 0.0189956 -0.00119102 -5.96516e-005 -5.41541e-019 0 2.42657e-020 0 0 -0 0.0122698 -0.00324857 -0.000673756 -2.00796e-019 0 -1.94126e-019 0 0 -0 0 0 -0 0 0 -0 3.39841 1.32893 -0.0637791 2.89429e-007 0.837668 -0.000490668 -3.39935 -2.16659 -0.0642983 -6.1306e-023 -2.3697e-023 1.48106e-024 -3.39842 1.3331 0.0638168 5.40307e-007 0.829226 0.00032655 3.39934 -2.16233 0.0641716 9.4472e-024 0 5.92424e-024 
-0.00540296 -18.555 2.00229 0 15.997 -0 -0.255166 6.4646 -0.171628 -0.495478 12.9299 -0.317124 -0.495478 12.9299 -0.317123 -3.82322e-007 6.99702 -1.543e-006 -1.09707e-007 17.9984 -2.53456e-007 2.97585 -2.57704 3.53691 -77.9122 -1.94219 1.387 -22.5933 4.83578 0.131529 1.14828 2.05367 -28.8793 -1.59028e-015 0 6.36111e-015 -5.1684e-015 -3.97569e-016 6.36111e-015 -3.77691e-015 -3.97569e-016 3.18055e-015 -1.59028e-015 0 6.36111e-015 -0.0146028 -9.02867e-005 2.19578e-006 -1.59028e-015 -1.19271e-015 3.18055e-015 -1.59028e-015 0 6.36111e-015 -0.0187126 -0.00117429 5.85279e-005 2.98177e-015 -7.95139e-016 -3.18055e-015 -1.59028e-015 0 6.36111e-015 -0.0122927 -0.00325667 0.000676023 -1.98785e-016 3.97569e-016 -3.18055e-015 -1.59028e-015 0 6.36111e-015 -5.1684e-015 -3.97569e-016 6.36111e-015 -3.77691e-015 -3.97569e-016 3.18055e-015 11.3022 -1.4534 7.8516 54.3632 25.9286 32.621 2.7919 4.60223 36.9715 7.74104 -18.8094 8.45264 -1.59028e-015 6.36111e-015 -6.36111e-015 -5.2309e-008 -1.04919e-007 1.78297e-007 -1.56927e-007 -3.14758e-007 5.34892e-007 -1.59028e-015 6.36111e-015 -6.36111e-015 0.0149889 -9.08315e-005 2.03597e-006 -1.56925e-007 -3.14688e-007 5.34933e-007 -1.59028e-015 6.36111e-015 -6.36111e-015 0.0190296 -0.00119562 -5.70563e-005 8.23922e-007 -8.60974e-007 6.74338e-007 -1.59028e-015 6.36111e-015 -6.36111e-015 0.0122967 -0.00325873 -0.00067787 -1.56908e-007 -3.14702e-007 5.3493e-007 -1.59028e-015 6.36111e-015 -6.36111e-015 -5.2309e-008 -1.04919e-007 1.78297e-007 -1.56927e-007 -3.14758e-007 5.34892e-007 1.32498 -12.1376 -13.8837 -121.615 82.6445 120.01 11.4877 27.7091 -14.0992 9.29539e-008 3.15136e-008 1.89426e-007 -1.11999 -12.7607 13.6451 84.8771 83.0417 -83.7426 -28.9949 55.4162 49.3918 -1.07174e-006 -1.0716e-006 7.88633e-007 
-0.00543735 -18.5713 1.74367 0 16.7732 -0 -0.255059 5.89675 -0.172983 -0.496084 11.7942 -0.321991 -0.496084 11.7942 -0.321991 6.36527e-006 6.6081 -3.1092e-006 -1.24453e-008 17.0019 -3.04641e-008 3.29313 -0.637568 3.76831 -77.9122 -1.9422 1.38701 -22.9979 4.97164 0.13067 1.47101 2.50544 -28.8259 -1.51699e-007 -1.26963e-006 1.1141e-006 -5.96354e-016 0 3.18055e-015 -1.51699e-007 -1.26963e-006 1.1141e-006 -1.51699e-007 -1.26963e-006 1.1141e-006 -0.0146132 -8.97775e-005 -3.63715e-007 -1.51673e-007 -1.26977e-006 1.11394e-006 -1.51699e-007 -1.26963e-006 1.1141e-006 -0.0187787 -0.00117654 6.04439e-005 -1.51656e-007 -1.26981e-006 1.11389e-006 -1.51699e-007 -1.26963e-006 1.1141e-006 -0.0123052 -0.00325337 0.000682032 -1.51654e-007 -1.26975e-006 1.11397e-006 -1.51699e-007 -1.26963e-006 1.1141e-006 -5.96354e-016 0 3.18055e-015 -1.51699e-007 -1.26963e-006 1.1141e-006 10.2234 -0.88352 7.71336 56.4988 26.5735 31.3274 2.77869 4.61976 36.9726 6.66056 -20.2437 7.1401 -2.96142e-007 -6.40954e-007 1.06812e-006 -2.96142e-007 -6.40954e-007 1.06812e-006 -2.96142e-007 -6.40954e-007 1.06812e-006 -2.96142e-007 -6.40954e-007 1.06812e-006 0.0149842 -9.17335e-005 2.63084e-006 1.95433e-006 -1.98407e-006 1.15533e-006 -2.96142e-007 -6.40954e-007 1.06812e-006 0.0189992 -0.00119159 -6.04824e-005 -2.96126e-007 -6.40777e-007 1.06823e-006 -2.96142e-007 -6.40954e-007 1.06812e-006 0.0122905 -0.0032548 -0.000677611 -2.96105e-007 -6.40842e-007 1.0682e-006 -2.96142e-007 -6.40954e-007 1.06812e-006 -2.96142e-007 -6.40954e-007 1.06812e-006 -2.96142e-007 -6.40954e-007 1.06812e-006 1.28187 -13.4804 -13.9706 -125.221 82.3112 123.534 11.4937 27.7076 -14.1094 -2.2587e-006 -2.00312e-007 -7.72121e-007 -1.08787 -13.8195 13.7241 87.3359 83.0305 -86.1703 -29.0105 55.4144 49.4085 -5.8344e-007 -5.32788e-007 2.07943e-008 
-0.0054745 -18.5862 1.48472 0 17.5501 -0 -0.254736 5.31443 -0.17427 -0.496381 10.6296 -0.326814 -0.496382 10.6296 -0.326814 -7.36714e-006 6.22025 4.91776e-006 -1.12593e-007 16.0042 -5.54997e-007 3.60414 1.31255 3.99008 -77.9122 -1.9422 1.387 -23.4018 5.11125 0.129792 1.79356 2.95766 -28.775 -1.2921e-015 1.59028e-015 -3.18055e-015 7.15357e-007 7.14652e-007 -7.47005e-007 -8.94531e-016 -3.97569e-016 -3.18055e-015 -1.2921e-015 1.59028e-015 -3.18055e-015 -0.0146454 -8.51886e-005 -6.37626e-007 1.39149e-015 1.19271e-015 -3.18055e-015 -1.2921e-015 1.59028e-015 -3.18055e-015 -0.0187488 -0.00117469 6.14148e-005 -4.96962e-016 -7.95139e-016 3.18055e-015 -1.2921e-015 1.59028e-015 -3.18055e-015 -0.0122656 -0.0032506 0.000675466 2.5842e-015 7.95139e-016 -6.36111e-015 -1.2921e-015 1.59028e-015 -3.18055e-015 7.15357e-007 7.14652e-007 -7.47005e-007 -8.94531e-016 -3.97569e-016 -3.18055e-015 9.1441 -0.310149 7.58569 58.6735 27.1775 29.9935 2.76547 4.63728 36.9737 5.52895 -21.6609 5.77927 8.74653e-015 0 4.77083e-015 9.28835e-008 2.17496e-007 -3.55309e-007 9.28834e-008 2.17496e-007 -3.55309e-007 8.74653e-015 0 4.77083e-015 0.0150023 -9.08664e-005 1.9135e-006 9.28822e-008 2.1745e-007 -3.55337e-007 8.74653e-015 0 4.77083e-015 0.0190008 -0.00119041 -5.7641e-005 2.28301e-006 2.93547e-007 3.18475e-007 8.74653e-015 0 4.77083e-015 0.0122929 -0.00325464 -0.00067751 9.28713e-008 2.17459e-007 -3.55335e-007 8.74653e-015 0 4.77083e-015 9.28835e-008 2.17496e-007 -3.55309e-007 9.28834e-008 2.17496e-007 -3.55309e-007 1.23702 -14.537 -14.0639 -126.852 82.1175 125.137 11.4996 27.7062 -14.1196 -8.9325e-007 -2.80619e-006 1.40495e-006 -1.0544 -14.8798 13.8042 89.7821 83.0067 -88.5853 -29.026 55.4126 49.4253 3.97569e-016 -3.18055e-015 -1.59028e-015 
-0.00550605 -18.5996 1.22547 0 18.3274 -0 -0.254187 4.71895 -0.175478 -0.496353 9.43861 -0.331561 -0.496353 9.4386 -0.331561 7.35861e-006 5.83071 -1.69816e-006 2.85386e-008 15.0055 9.49626e-008 3.9093 3.27235 4.20242 -77.9122 -1.94219 1.38701 -23.8048 5.25458 0.128921 2.11597 3.41032 -28.7266 1.09332e-015 -1.19271e-015 -3.18055e-015 1.68967e-015 -7.95139e-016 -6.36111e-015 2.18663e-015 -7.95139e-016 -3.18055e-015 1.09332e-015 -1.19271e-015 -3.18055e-015 -0.014605 -8.79977e-005 -6.23678e-008 -1.88845e-015 0 -0 1.09332e-015 -1.19271e-015 -3.18055e-015 -0.0187436 -0.00117609 5.95396e-005 1.07344e-014 -4.37326e-015 -3.18055e-015 1.09332e-015 -1.19271e-015 -3.18055e-015 -0.0122489 -0.00324512 0.000672594 4.96962e-016 0 -6.36111e-015 1.09332e-015 -1.19271e-015 -3.18055e-015 1.68967e-015 -7.95139e-016 -6.36111e-015 2.18663e-015 -7.95139e-016 -3.18055e-015 8.06432 0.26658 7.46863 60.8852 27.738 28.6212 2.75221 4.6548 36.9747 4.34437 -23.0583 4.36824 2.0227e-006 -2.57627e-007 9.41681e-007 3.4083e-006 -2.5284e-007 1.42672e-006 6.36111e-015 3.18055e-015 4.77083e-015 2.0227e-006 -2.57627e-007 9.41681e-007 0.0149946 -9.04405e-005 4.71616e-006 2.38542e-015 3.18055e-015 3.18055e-015 2.0227e-006 -2.57627e-007 9.41681e-007 0.0189869 -0.00119177 -5.77384e-005 1.59028e-015 0 1.59028e-015 2.0227e-006 -2.57627e-007 9.41681e-007 0.0122645 -0.00324653 -0.000673061 2.11085e-006 -3.64633e-008 5.8716e-007 2.0227e-006 -2.57627e-007 9.41681e-007 3.4083e-006 -2.5284e-007 1.42672e-006 6.36111e-015 3.18055e-015 4.77083e-015 1.19048 -15.5949 -14.1586 -128.404 81.9177 126.661 11.5056 27.7048 -14.1298 -3.97207e-006 1.11485e-007 2.1576e-006 -1.01951 -15.9413 13.8855 92.2086 82.9704 -90.9805 -29.0416 55.4108 49.4422 -1.12888e-006 -3.16987e-007 2.77362e-006 
-0.00554421 -18.6116 0.965959 0 19.1051 -0 -0.253385 4.11179 -0.176592 -0.49595 8.22438 -0.3362 -0.49595 8.22438 -0.3362 1.9365e-006 5.44268 -4.50705e-007 -1.57374e-007 14.0058 2.89294e-008 4.20904 5.24044 4.40556 -77.9122 -1.94219 1.38701 -24.207 5.40169 0.128047 2.43823 3.86338 -28.6807 -2.08724e-015 0 -0 -2.28602e-015 0 -0 -2.18663e-015 3.97569e-016 -0 -2.08724e-015 0 -0 -0.0146023 -8.72513e-005 -2.1404e-007 -8.94531e-016 -3.97569e-016 3.18055e-015 -2.08724e-015 0 -0 -0.0187551 -0.00117625 5.65202e-005 8.94531e-016 0 -0 -2.08724e-015 0 -0 -0.0122487 -0.0032428 0.000672643 -1.98785e-016 3.97569e-016 -0 -2.08724e-015 0 -0 -2.28602e-015 0 -0 -2.18663e-015 3.97569e-016 -0 6.98411 0.84616 7.36232 63.1315 28.2529 27.2129 2.739 4.67232 36.9758 3.1049 -24.433 2.90511 2.08895e-006 1.92282e-008 2.38524e-007 6.10341e-008 1.68921e-007 -2.65017e-007 -5.56597e-015 3.18055e-015 7.95139e-015 2.08895e-006 1.92282e-008 2.38524e-007 0.0149952 -9.12429e-005 -1.22994e-006 -4.37326e-015 9.54166e-015 9.54166e-015 2.08895e-006 1.92282e-008 2.38524e-007 0.0190005 -0.00119247 -6.13252e-005 1.59028e-015 0 3.18055e-015 2.08895e-006 1.92282e-008 2.38524e-007 0.0122439 -0.00324043 -0.000673025 -3.53113e-031 3.18055e-015 6.36111e-015 2.08895e-006 1.92282e-008 2.38524e-007 6.10341e-008 1.68921e-007 -2.65017e-007 -5.56597e-015 3.18055e-015 7.95139e-015 1.1422 -16.6538 -14.2548 -129.881 81.7125 128.109 11.5116 27.7034 -14.1401 -3.71167e-007 -1.27815e-007 -7.57682e-007 -0.983154 -17.0039 13.9679 94.6052 82.9219 -93.3459 -29.0572 55.4091 49.4591 -1.12961e-006 -3.18398e-007 2.77327e-006 
